<svg width="24" height="24" viewBox="0 0 24 24" fill="none" xmlns="http://www.w3.org/2000/svg">
<g clip-path="url(#clip0_11311_4580)">
<rect width="24" height="24" fill="white" fill-opacity="0.01"/>
<path d="M3.5 19L3.50002 18.9823C2.65194 18.861 2 18.1316 2 17.25V16.3284C2 15.798 2.21071 15.2893 2.58579 14.9142L3.5 14V10.5C3.5 5.80558 7.30558 2 12 2C16.6944 2 20.5 5.80558 20.5 10.5V14L21.4142 14.9142C21.7893 15.2893 22 15.798 22 16.3284V17.25C22 18.1315 21.3483 18.8607 20.5005 18.9822L20.5 19L15.4645 19.0001C15.2219 20.6962 13.7632 22 12 22C10.2368 22 8.77812 20.6962 8.53546 19.0001L3.5 19ZM13.9369 19.0005L10.0625 19L10.09 19.0949C10.3432 19.9089 11.1026 20.5 12 20.5C12.8972 20.5 13.6565 19.9092 13.9099 19.0953L13.9369 19.0005ZM12 3.5C8.18625 3.5 5.08484 6.54988 5.00171 10.3437L5 10.5V14.5385C5 14.5915 4.97893 14.6424 4.94142 14.6799L3.64645 15.9749C3.56831 16.053 3.5187 16.1544 3.50434 16.2627L3.5 16.3284V17.25C3.5 17.3589 3.57079 17.4535 3.66884 17.4869L3.7124 17.4974L3.733 17.5H20.2665L20.2877 17.4974C20.3926 17.4823 20.4765 17.3995 20.4958 17.2957L20.5 17.25V16.3284C20.5 16.2179 20.4634 16.1112 20.397 16.0244L20.3536 15.9749L19.0586 14.6799C19.0211 14.6424 19 14.5915 19 14.5385V10.5C19 6.63401 15.866 3.5 12 3.5Z" fill="black"/>
</g>
<defs>
<clipPath id="clip0_11311_4580">
<rect width="24" height="24" fill="white"/>
</clipPath>
</defs>
</svg>
