<svg width="41" height="40" viewBox="0 0 41 40" fill="none" xmlns="http://www.w3.org/2000/svg">
<g id="User">
<path id="vector" d="M20.9168 3.33334C25.5095 3.33334 29.2326 7.05648 29.2326 11.6492V15.0175C29.2326 18.0954 27.5605 20.7827 25.0751 22.2206L25.0747 22.5L34.2209 27.3883C36.2306 28.4624 37.3838 30.6519 37.1327 32.9167C36.896 35.0515 35.0918 36.6667 32.9439 36.6667H8.88962C6.74177 36.6667 4.93753 35.0515 4.70083 32.9167C4.44971 30.6519 5.6029 28.4624 7.6126 27.3883L16.7588 22.5L16.7585 22.2206C14.2731 20.7827 12.6009 18.0954 12.6009 15.0175V11.6492C12.6009 7.05648 16.324 3.33334 20.9168 3.33334ZM20.9168 5.83335C17.7717 5.83335 15.2097 8.32983 15.1043 11.4493L15.1009 11.6492V15.0175C15.1009 17.044 16.1441 18.8863 17.8214 19.9426L18.0104 20.0567L19.0904 20.6815C19.1933 20.741 19.2567 20.8508 19.2568 20.9696L19.2606 23.7974C19.2607 23.9205 19.193 24.0338 19.0844 24.0918L8.791 29.5931C7.68296 30.1853 7.04716 31.3925 7.18561 32.6412C7.27708 33.4662 7.94407 34.1005 8.75966 34.1618L8.88962 34.1667H32.9439C33.8177 34.1667 34.5516 33.5096 34.6479 32.6412C34.7801 31.4493 34.2068 30.2952 33.1907 29.6776L33.0425 29.5931L22.7492 24.0918C22.6406 24.0338 22.5728 23.9205 22.573 23.7974L22.5767 20.9696C22.5769 20.8508 22.6403 20.741 22.7431 20.6815L23.8231 20.0567C25.5469 19.0595 26.6516 17.2539 26.7284 15.2419L26.7326 15.0175V11.6492C26.7326 8.43719 24.1288 5.83335 20.9168 5.83335Z" fill="black"/>
</g>
</svg>
