<svg width="20" height="21" viewBox="0 0 20 21" fill="none" xmlns="http://www.w3.org/2000/svg">
<g id="ExclamationCircle">
<path id="vector" d="M9.99992 1.33333C15.0625 1.33333 19.1666 5.43738 19.1666 10.5C19.1666 15.5626 15.0625 19.6667 9.99992 19.6667C4.93731 19.6667 0.833252 15.5626 0.833252 10.5C0.833252 5.43738 4.93731 1.33333 9.99992 1.33333ZM9.99992 2.58333C5.62766 2.58333 2.08325 6.12774 2.08325 10.5C2.08325 14.8722 5.62766 18.4167 9.99992 18.4167C14.3722 18.4167 17.9166 14.8722 17.9166 10.5C17.9166 6.12774 14.3722 2.58333 9.99992 2.58333ZM10.4583 13.4167C10.5503 13.4167 10.6249 13.4913 10.6249 13.5833V14.5C10.6249 14.592 10.5503 14.6667 10.4583 14.6667H9.54158C9.44954 14.6667 9.37492 14.592 9.37492 14.5V13.5833C9.37492 13.4913 9.44954 13.4167 9.54158 13.4167H10.4583ZM10.4583 6.33333C10.5503 6.33333 10.6249 6.40795 10.6249 6.49999V12C10.6249 12.092 10.5503 12.1667 10.4583 12.1667H9.54158C9.44954 12.1667 9.37492 12.092 9.37492 12V6.49999C9.37492 6.40795 9.44954 6.33333 9.54158 6.33333H10.4583Z" fill="#1677FF"/>
</g>
</svg>
